<?xml version="1.0" encoding="UTF-8" standalone="no"?>
<svg
   version="1.1"
   viewBox="0.0 0.0 809.3070866141733 336.49343832021"
   fill="none"
   stroke="none"
   stroke-linecap="square"
   stroke-miterlimit="10"
   id="svg261"
   sodipodi:docname="batch.svg"
   xml:space="preserve"
   inkscape:version="1.3 (1:1.3+202307231459+0e150ed6c4)"
   xmlns:inkscape="http://www.inkscape.org/namespaces/inkscape"
   xmlns:sodipodi="http://sodipodi.sourceforge.net/DTD/sodipodi-0.dtd"
   xmlns="http://www.w3.org/2000/svg"
   xmlns:svg="http://www.w3.org/2000/svg"><defs
     id="defs261" /><sodipodi:namedview
     id="namedview261"
     pagecolor="#ffffff"
     bordercolor="#000000"
     borderopacity="0.25"
     inkscape:showpageshadow="2"
     inkscape:pageopacity="0.0"
     inkscape:pagecheckerboard="0"
     inkscape:deskcolor="#d1d1d1"
     inkscape:zoom="1.5828356"
     inkscape:cx="483.94162"
     inkscape:cy="168.05283"
     inkscape:window-width="1850"
     inkscape:window-height="1016"
     inkscape:window-x="0"
     inkscape:window-y="0"
     inkscape:window-maximized="1"
     inkscape:current-layer="g261" /><clipPath
     id="p.0"><path
       d="m0 0l809.30707 0l0 336.49344l-809.30707 0l0 -336.49344z"
       clip-rule="nonzero"
       id="path1" /></clipPath><g
     clip-path="url(#p.0)"
     id="g261"><path
       fill="#000000"
       fill-opacity="0.0"
       d="m0 0l809.30707 0l0 336.49344l-809.30707 0z"
       fill-rule="evenodd"
       id="path2" /><path
       fill="#cfe2f3"
       d="M 288.39695,42.007871 H 411.45206 V 165.06298 H 288.39695 Z"
       fill-rule="evenodd"
       id="path3" /><path
       stroke="#0b5394"
       stroke-width="1"
       stroke-linejoin="round"
       stroke-linecap="butt"
       d="M 288.39695,42.007871 H 411.45206 V 165.06298 H 288.39695 Z"
       fill-rule="evenodd"
       id="path4" /><path
       fill="#cfe2f3"
       d="M 296.39695,50.007875 H 419.45206 V 173.06299 H 296.39695 Z"
       fill-rule="evenodd"
       id="path5" /><path
       stroke="#0b5394"
       stroke-width="1"
       stroke-linejoin="round"
       stroke-linecap="butt"
       d="M 296.39695,50.007875 H 419.45206 V 173.06299 H 296.39695 Z"
       fill-rule="evenodd"
       id="path6" /><path
       fill="#cfe2f3"
       d="M 304.39695,58.007875 H 427.45206 V 181.06299 H 304.39695 Z"
       fill-rule="evenodd"
       id="path7" /><path
       stroke="#0b5394"
       stroke-width="1"
       stroke-linejoin="round"
       stroke-linecap="butt"
       d="M 304.39695,58.007875 H 427.45206 V 181.06299 H 304.39695 Z"
       fill-rule="evenodd"
       id="path8" /><path
       fill="#cfe2f3"
       d="M 312.39695,66.007875 H 435.45206 V 189.06299 H 312.39695 Z"
       fill-rule="evenodd"
       id="path9" /><path
       stroke="#0b5394"
       stroke-width="1"
       stroke-linejoin="round"
       stroke-linecap="butt"
       d="M 312.39695,66.007875 H 435.45206 V 189.06299 H 312.39695 Z"
       fill-rule="evenodd"
       id="path10" /><path
       fill="#cfe2f3"
       d="M 320.39695,74.007875 H 443.45206 V 197.06299 H 320.39695 Z"
       fill-rule="evenodd"
       id="path11" /><path
       stroke="#0b5394"
       stroke-width="1"
       stroke-linejoin="round"
       stroke-linecap="butt"
       d="M 320.39695,74.007875 H 443.45206 V 197.06299 H 320.39695 Z"
       fill-rule="evenodd"
       id="path12" /><path
       fill="#cfe2f3"
       d="M 328.39695,82.007875 H 451.45206 V 205.06299 H 328.39695 Z"
       fill-rule="evenodd"
       id="path13" /><path
       stroke="#0b5394"
       stroke-width="1"
       stroke-linejoin="round"
       stroke-linecap="butt"
       d="M 328.39695,82.007875 H 451.45206 V 205.06299 H 328.39695 Z"
       fill-rule="evenodd"
       id="path14" /><path
       fill="#cfe2f3"
       d="M 336.39695,90.007875 H 459.45206 V 213.06299 H 336.39695 Z"
       fill-rule="evenodd"
       id="path15" /><path
       stroke="#0b5394"
       stroke-width="1"
       stroke-linejoin="round"
       stroke-linecap="butt"
       d="M 336.39695,90.007875 H 459.45206 V 213.06299 H 336.39695 Z"
       fill-rule="evenodd"
       id="path16" /><path
       fill="#cfe2f3"
       d="M 344.39695,98.007875 H 467.45206 V 221.06299 H 344.39695 Z"
       fill-rule="evenodd"
       id="path17" /><path
       stroke="#0b5394"
       stroke-width="1"
       stroke-linejoin="round"
       stroke-linecap="butt"
       d="M 344.39695,98.007875 H 467.45206 V 221.06299 H 344.39695 Z"
       fill-rule="evenodd"
       id="path18" /><path
       fill="#cfe2f3"
       d="M 352.39695,106.00787 H 475.45206 V 229.06299 H 352.39695 Z"
       fill-rule="evenodd"
       id="path19" /><path
       stroke="#0b5394"
       stroke-width="1"
       stroke-linejoin="round"
       stroke-linecap="butt"
       d="M 352.39695,106.00787 H 475.45206 V 229.06299 H 352.39695 Z"
       fill-rule="evenodd"
       id="path20" /><path
       fill="#cfe2f3"
       d="M 360.39695,114.00787 H 483.45206 V 237.06298 H 360.39695 Z"
       fill-rule="evenodd"
       id="path21" /><path
       stroke="#0b5394"
       stroke-width="1"
       stroke-linejoin="round"
       stroke-linecap="butt"
       d="M 360.39695,114.00787 H 483.45206 V 237.06298 H 360.39695 Z"
       fill-rule="evenodd"
       id="path22" /><path
       fill="#cfe2f3"
       d="M 368.39695,122.00787 H 491.45206 V 245.063 H 368.39695 Z"
       fill-rule="evenodd"
       id="path23" /><path
       stroke="#0b5394"
       stroke-width="1"
       stroke-linejoin="round"
       stroke-linecap="butt"
       d="M 368.39695,122.00787 H 491.45206 V 245.063 H 368.39695 Z"
       fill-rule="evenodd"
       id="path24" /><path
       fill="#cfe2f3"
       d="M 376.39695,130.00787 H 499.45206 V 253.063 H 376.39695 Z"
       fill-rule="evenodd"
       id="path25" /><path
       stroke="#0b5394"
       stroke-width="1"
       stroke-linejoin="round"
       stroke-linecap="butt"
       d="M 376.39695,130.00787 H 499.45206 V 253.063 H 376.39695 Z"
       fill-rule="evenodd"
       id="path26" /><path
       fill="#cfe2f3"
       d="M 384.39695,138.00787 H 507.45206 V 261.063 H 384.39695 Z"
       fill-rule="evenodd"
       id="path27" /><path
       stroke="#0b5394"
       stroke-width="1"
       stroke-linejoin="round"
       stroke-linecap="butt"
       d="M 384.39695,138.00787 H 507.45206 V 261.063 H 384.39695 Z"
       fill-rule="evenodd"
       id="path28" /><path
       fill="#cfe2f3"
       d="M 392.39695,146.00787 H 515.45206 V 269.063 H 392.39695 Z"
       fill-rule="evenodd"
       id="path93" /><path
       stroke="#0b5394"
       stroke-width="1"
       stroke-linejoin="round"
       stroke-linecap="butt"
       d="M 392.39695,146.00787 H 515.45206 V 269.063 H 392.39695 Z"
       fill-rule="evenodd"
       id="path94" /><path
       fill="#cfe2f3"
       d="M 400.39695,154.00787 H 523.45206 V 277.063 H 400.39695 Z"
       fill-rule="evenodd"
       id="path95" /><path
       stroke="#0b5394"
       stroke-width="1"
       stroke-linejoin="round"
       stroke-linecap="butt"
       d="M 400.39695,154.00787 H 523.45206 V 277.063 H 400.39695 Z"
       fill-rule="evenodd"
       id="path96" /><path
       fill="#cfe2f3"
       d="M 408.39695,162.00787 H 531.45206 V 285.063 H 408.39695 Z"
       fill-rule="evenodd"
       id="path97" /><path
       stroke="#0b5394"
       stroke-width="1"
       stroke-linejoin="round"
       stroke-linecap="butt"
       d="M 408.39695,162.00787 H 531.45206 V 285.063 H 408.39695 Z"
       fill-rule="evenodd"
       id="path98" /><path
       fill="#cfe2f3"
       d="m 498.33134,257.49081 h 14.39371 v 14.39371 h -14.39371 z"
       fill-rule="evenodd"
       id="path195" /><path
       fill="#000000"
       fill-opacity="0.0"
       d="m288.84253 273.12598l146.2992 3.4015808"
       fill-rule="evenodd"
       id="path199" /><path
       fill="#000000"
       fill-opacity="0.0"
       d="m288.75854 287.53018l146.45667 -3.2440796"
       fill-rule="evenodd"
       id="path201" /><path
       fill="#000000"
       fill-opacity="0.0"
       d="m6.0594583 177.21584l122.11552 0l0 123.05513l-122.11552 0z"
       fill-rule="nonzero"
       id="path219" /><path
       fill="#cfe2f3"
       d="m 421.45994,176.64829 h 7.65355 v 7.65355 h -7.65355 z"
       fill-rule="evenodd"
       id="path224" /><path
       fill="#000000"
       fill-opacity="0.0"
       d="m36.490814 181.23622l161.25984 11.149612"
       fill-rule="evenodd"
       id="path226" /><path
       fill="#000000"
       fill-opacity="0.0"
       d="m36.65354 207.41733l160.91339 -7.3070984"
       fill-rule="evenodd"
       id="path228" /><path
       fill="#000000"
       fill-opacity="0.0"
       d="m576.7386 204.44095l125.41736 -197.98425"
       fill-rule="evenodd"
       id="path234" /><path
       fill="#000000"
       fill-opacity="0.0"
       d="m35.795277 301.19028l62.64567 0l0 38.771667l-62.64567 0z"
       fill-rule="evenodd"
       id="path248" /><path
       fill="#000000"
       fill-opacity="0"
       d="m 421.35758,285.48949 h 97.13385 v 38.77167 h -97.13385 z"
       fill-rule="evenodd"
       id="path250" /><path
       fill="#0b5394"
       d="m 460.95185,307.13075 q -0.28125,1.40625 -1.125,2.17188 -0.84375,0.76562 -1.875,0.76562 -1.21875,0 -2.125,-1.01562 -0.90625,-1.03125 -0.90625,-2.78125 0,-1.6875 1,-2.73438 1.01562,-1.0625 2.42187,-1.0625 1.04688,0 1.71875,0.5625 0.6875,0.5625 0.6875,1.15625 0,0.29688 -0.1875,0.48438 -0.1875,0.1875 -0.53125,0.1875 -0.46875,0 -0.70312,-0.29688 -0.125,-0.17187 -0.17188,-0.625 -0.0469,-0.46875 -0.3125,-0.70312 -0.28125,-0.23438 -0.76562,-0.23438 -0.78125,0 -1.25,0.57813 -0.64063,0.76562 -0.64063,2.01562 0,1.28125 0.625,2.26563 0.64063,0.98437 1.70313,0.98437 0.76562,0 1.375,-0.53125 0.4375,-0.35937 0.84375,-1.29687 z m 4.52344,-4.65625 q 1.625,0 2.60937,1.23438 0.84375,1.0625 0.84375,2.42187 0,0.96875 -0.46875,1.95313 -0.45312,0.98437 -1.26562,1.48437 -0.8125,0.5 -1.79688,0.5 -1.625,0 -2.57812,-1.29687 -0.79688,-1.07813 -0.79688,-2.4375 0,-0.98438 0.48438,-1.95313 0.48437,-0.96875 1.28125,-1.4375 0.79687,-0.46875 1.6875,-0.46875 z m -0.23438,0.51563 q -0.42187,0 -0.84375,0.25 -0.40625,0.23437 -0.67187,0.85937 -0.25,0.60938 -0.25,1.57813 0,1.5625 0.60937,2.70312 0.625,1.125 1.64063,1.125 0.76562,0 1.25,-0.625 0.5,-0.625 0.5,-2.14062 0,-1.90625 -0.82813,-3 -0.54687,-0.75 -1.40625,-0.75 z m 6.82813,1 q 1.25,-1.51563 2.39062,-1.51563 0.59375,0 1.01563,0.29688 0.42187,0.29687 0.67187,0.96875 0.17188,0.46875 0.17188,1.4375 v 3.04687 q 0,0.6875 0.10937,0.92188 0.0781,0.20312 0.26563,0.3125 0.20312,0.10937 0.71875,0.10937 v 0.28125 h -3.54688 v -0.28125 h 0.15625 q 0.5,0 0.6875,-0.15625 0.20313,-0.15625 0.28125,-0.45312 0.0312,-0.10938 0.0312,-0.73438 v -2.92187 q 0,-0.98438 -0.25,-1.42188 -0.25,-0.4375 -0.85937,-0.4375 -0.92188,0 -1.84375,1.01563 v 3.76562 q 0,0.73438 0.0781,0.90625 0.10938,0.21875 0.29688,0.32813 0.20312,0.10937 0.78125,0.10937 v 0.28125 h -3.53125 v -0.28125 h 0.15625 q 0.54687,0 0.73437,-0.28125 0.1875,-0.28125 0.1875,-1.0625 v -2.65625 q 0,-1.28125 -0.0625,-1.5625 -0.0469,-0.28125 -0.17187,-0.375 -0.125,-0.10937 -0.32813,-0.10937 -0.21875,0 -0.51562,0.10937 l -0.125,-0.28125 2.15625,-0.875 h 0.34375 z m 5.54687,-1.29688 h 3.35938 v 0.28125 h -0.21875 q -0.29688,0 -0.46875,0.15625 -0.15625,0.14063 -0.15625,0.39063 0,0.28125 0.17187,0.65625 l 1.65625,3.95312 1.67188,-4.10937 q 0.1875,-0.4375 0.1875,-0.65625 0,-0.10938 -0.0625,-0.1875 -0.0937,-0.10938 -0.23438,-0.15625 -0.125,-0.0469 -0.53125,-0.0469 v -0.28125 h 2.34375 v 0.28125 q -0.40625,0.0312 -0.5625,0.17188 -0.28125,0.23437 -0.5,0.78125 l -2.53125,6.14062 h -0.32812 l -2.54688,-6.04687 q -0.17187,-0.42188 -0.32812,-0.59375 -0.15625,-0.1875 -0.40625,-0.3125 -0.125,-0.0781 -0.51563,-0.14063 z"
       fill-rule="nonzero"
       id="path251" /><path
       fill="#000000"
       fill-opacity="0.0"
       d="m670.96326 301.19028l109.88977 0l0 38.771667l-109.88977 0z"
       fill-rule="evenodd"
       id="path258" /><path
       fill="#000000"
       fill-opacity="0.0"
       d="m746.9425 196.14961l71.46454 0l0 38.771652l-71.46454 0z"
       fill-rule="evenodd"
       id="path260" /></g></svg>
