<?xml version="1.0" encoding="UTF-8" standalone="no"?>
<!-- Created with Inkscape (http://www.inkscape.org/) -->

<svg
   width="297mm"
   height="210mm"
   viewBox="0 0 297 210"
   version="1.1"
   id="svg1"
   xml:space="preserve"
   inkscape:version="1.3 (1:1.3+202307231459+0e150ed6c4)"
   sodipodi:docname="drawing1.svg"
   xmlns:inkscape="http://www.inkscape.org/namespaces/inkscape"
   xmlns:sodipodi="http://sodipodi.sourceforge.net/DTD/sodipodi-0.dtd"
   xmlns="http://www.w3.org/2000/svg"
   xmlns:svg="http://www.w3.org/2000/svg"><sodipodi:namedview
     id="namedview1"
     pagecolor="#ffffff"
     bordercolor="#000000"
     borderopacity="0.25"
     inkscape:showpageshadow="2"
     inkscape:pageopacity="0.0"
     inkscape:pagecheckerboard="0"
     inkscape:deskcolor="#d1d1d1"
     inkscape:document-units="mm"
     inkscape:zoom="0.72693604"
     inkscape:cx="632.79295"
     inkscape:cy="401.68596"
     inkscape:window-width="1850"
     inkscape:window-height="1016"
     inkscape:window-x="0"
     inkscape:window-y="0"
     inkscape:window-maximized="1"
     inkscape:current-layer="layer6"
     inkscape:clip-to-page="false" /><defs
     id="defs1" /><g
     inkscape:label="pot1"
     inkscape:groupmode="layer"
     id="layer1"
     transform="translate(-62.842433,57.720121)"><path
       style="fill:none;stroke:#060000;stroke-width:1.09726;stroke-linecap:round;stroke-dasharray:none;stroke-opacity:1"
       d="m 108.76796,64.394788 c 0,6.474217 4.49448,5.623793 4.49448,5.623793 l 5.15075,-0.06952 c 0,0 0,-4.862802 0,-7.65295 0,-2.790144 -3.63609,-4.374001 -3.63609,-4.374001 l -6.1532,-0.08169 z"
       id="path1"
       inkscape:label="path1" /><path
       style="fill:none;stroke:#060000;stroke-width:1.09726;stroke-linecap:round;stroke-dasharray:none;stroke-opacity:1"
       d="m 122.90767,63.389888 c -5.17413,0 -4.49448,5.623796 -4.49448,5.623796 l 0.0555,6.444979 c 0,0 3.8863,0 6.11616,0 2.22985,0 3.49567,-4.549735 3.49567,-4.549735 l 0.0653,-7.699301 z"
       id="path1-9"
       inkscape:label="path1" /><path
       style="fill:none;stroke:#060000;stroke-width:1.09726;stroke-linecap:round;stroke-dasharray:none;stroke-opacity:1"
       d="m 118.46873,75.458663 -0.0701,17.230141 -27.873459,10e-7 -0.0435,3.405134 24.585589,0.133953 -24.593929,-0.09752 -0.0836,4.283198 4.88218,-0.10746 2.39572,27.25088 41.560819,0.0207 2.45034,-25.89558 0.13149,-1.39847 4.93866,-0.21059 0.0236,-7.384117 -28.37389,-2e-6"
       id="path2" /><path
       style="fill:none;stroke:#060000;stroke-width:1.09726;stroke-linecap:round;stroke-dasharray:none;stroke-opacity:1"
       d="m 96.257001,111.51145 16.438649,0.001"
       id="path3" /><path
       style="fill:none;stroke:#060000;stroke-width:1.09726;stroke-linecap:round;stroke-dasharray:none;stroke-opacity:1"
       d="M 97.033541,120.3445 105.45664,120.27"
       id="path4" /><path
       style="fill:none;stroke:#060000;stroke-width:1.09726;stroke-linecap:round;stroke-dasharray:none;stroke-opacity:1"
       d="m 95.271891,100.30611 46.538379,-0.0225"
       id="path5" /></g><g
     inkscape:groupmode="layer"
     id="layer2"
     inkscape:label="pot2"
     transform="translate(65.793492,-3.1155369)"><path
       style="fill:none;stroke:#060000;stroke-width:1.09726;stroke-linecap:round;stroke-dasharray:none;stroke-opacity:1"
       d="m 171.48167,124.67764 c 0,6.47421 4.49446,5.62379 4.49446,5.62379 l 5.15077,-0.0695 c 0,0 0,-4.8628 0,-7.65295 0,-2.79015 -3.6361,-4.37401 -3.6361,-4.37401 l -6.15319,-0.0816 z"
       id="path1-0-2"
       inkscape:label="path1" /><path
       style="fill:none;stroke:#060000;stroke-width:1.09726;stroke-linecap:round;stroke-dasharray:none;stroke-opacity:1"
       d="m 185.62137,123.67274 c -5.17412,0 -4.49447,5.62379 -4.49447,5.62379 l 0.0555,6.44497 c 0,0 3.88629,0 6.11614,0 2.22987,0 3.49566,-4.54972 3.49566,-4.54972 l 0.0653,-7.6993 z"
       id="path1-9-9-8"
       inkscape:label="path1" /><path
       style="fill:none;stroke:#060000;stroke-width:1.09726;stroke-linecap:round;stroke-dasharray:none;stroke-opacity:1"
       d="m 181.18244,135.7415 -0.0701,17.23015 h -27.87346 l -0.0435,3.40514 24.58557,0.13395 -24.59392,-0.0975 -0.0835,4.28318 4.88217,-0.10739 2.39573,27.25086 41.5608,0.0207 2.45034,-25.89556 0.13151,-1.39848 4.93866,-0.21059 0.0236,-7.38411 h -28.37397"
       id="path2-3-9" /><path
       style="fill:none;stroke:#060000;stroke-width:1.09726;stroke-linecap:round;stroke-dasharray:none;stroke-opacity:1"
       d="m 158.9707,171.7943 16.43866,0.001"
       id="path3-60-7" /><path
       style="fill:none;stroke:#060000;stroke-width:1.09726;stroke-linecap:round;stroke-dasharray:none;stroke-opacity:1"
       d="m 159.74725,180.62734 8.42309,-0.0745"
       id="path4-6-3" /><path
       style="fill:none;stroke:#060000;stroke-width:1.09726;stroke-linecap:round;stroke-dasharray:none;stroke-opacity:1"
       d="m 157.98561,160.58895 46.53835,-0.0225"
       id="path5-2-6" /></g><g
     inkscape:groupmode="layer"
     id="layer5"
     inkscape:label="text"><text
       xml:space="preserve"
       style="font-size:6.07891px;font-family:FreeMono;-inkscape-font-specification:FreeMono;fill:#231e25;stroke-width:0.326167;stroke-linecap:round;stroke-opacity:0"
       x="31.114328"
       y="196.32352"
       id="text1"
       transform="scale(1.0130996,0.98706978)"><tspan
         sodipodi:role="line"
         id="tspan1"
         style="font-size:6.07891px;stroke-width:0.326169"
         x="31.114328"
         y="196.32352">Control Group </tspan></text><text
       xml:space="preserve"
       style="font-size:6.07892px;font-family:FreeMono;-inkscape-font-specification:FreeMono;fill:#231e25;stroke-width:0.326167;stroke-linecap:round;stroke-opacity:0"
       x="116.28304"
       y="196.23549"
       id="text2"
       transform="scale(1.0130996,0.98706978)"><tspan
         sodipodi:role="line"
         id="tspan2"
         style="text-align:center;text-anchor:middle;stroke-width:0.326169"
         x="116.28304"
         y="196.23549">Drought-Induced</tspan><tspan
         sodipodi:role="line"
         style="text-align:center;text-anchor:middle;stroke-width:0.326169"
         x="116.28304"
         y="203.83414"
         id="tspan5"> Group</tspan></text><text
       xml:space="preserve"
       style="font-size:6.07892px;font-family:FreeMono;-inkscape-font-specification:FreeMono;fill:#231e25;stroke-width:0.326167;stroke-linecap:round;stroke-opacity:0"
       x="149.07121"
       y="196.44508"
       id="text3"
       transform="scale(1.0130996,0.98706978)"><tspan
         sodipodi:role="line"
         id="tspan3"
         style="stroke-width:0.326169"
         x="149.07121"
         y="196.44508">Soil Composition</tspan><tspan
         sodipodi:role="line"
         style="stroke-width:0.326169"
         x="149.07121"
         y="204.04373"
         id="tspan6">Alteration Group</tspan></text><text
       xml:space="preserve"
       style="font-size:6.07892px;font-family:FreeMono;-inkscape-font-specification:FreeMono;text-align:center;text-anchor:middle;fill:#231e25;stroke-width:0.326167;stroke-linecap:round;stroke-opacity:0"
       x="243.87373"
       y="196.44508"
       id="text4"
       transform="scale(1.0130996,0.98706978)"><tspan
         sodipodi:role="line"
         id="tspan4"
         style="text-align:center;text-anchor:middle;stroke-width:0.326169"
         x="243.87373"
         y="196.44508">Excessive Watering</tspan><tspan
         sodipodi:role="line"
         style="text-align:center;text-anchor:middle;stroke-width:0.326169"
         x="245.6974"
         y="204.04373"
         id="tspan7">Group </tspan></text></g><g
     inkscape:groupmode="layer"
     id="layer6"
     inkscape:label="lamp"
     style="stroke:#0e0000;stroke-width:1.7;stroke-dasharray:none;stroke-opacity:1"><path
       style="fill:none;stroke:#0e0000;stroke-width:2.0924;stroke-linecap:round;stroke-dasharray:none;stroke-opacity:1"
       d="m 147.34162,1.0462 v 35.686103 c 5.53665,0.130547 7.83606,4.381615 10.02557,8.53504 v 0 c 0,0 2.65078,3.627103 6.448,3.627103 3.79723,0 15.27097,0.278607 15.27097,0.278607 0,0 7.00223,0.657256 7.00223,6.822305 l -78.67854,0.144724 c 0,0 1.80167,-7.060166 7.24635,-7.060166 5.44468,0 16.29104,-0.112488 16.29104,-0.112488 0,0 3.98961,0.157839 6.12471,-3.445251 2.1351,-3.60309 4.02878,-8.789853 10.26964,-8.789853"
       id="path7"
       sodipodi:nodetypes="ccccscccscsc" /><path
       style="fill:none;stroke:#0e0000;stroke-width:2.0924;stroke-linecap:round;stroke-dasharray:none;stroke-opacity:1"
       d="m 135.55892,56.301446 c 0,0 4.21583,5.718296 10.16557,5.718296 5.94974,0 11.1553,-5.676935 11.1553,-5.676935"
       id="path8"
       sodipodi:nodetypes="csc" /></g><g
     inkscape:groupmode="layer"
     id="layer3"
     inkscape:label="pot3"
     transform="translate(-6.779025,54.133981)"><path
       style="fill:none;stroke:#060000;stroke-width:1.09726;stroke-linecap:round;stroke-dasharray:none;stroke-opacity:1"
       d="m 114.85676,67.893972 c 0,6.474218 4.49446,5.623794 4.49446,5.623794 l 5.15077,-0.06952 c 0,0 0,-4.862802 0,-7.65295 0,-2.790144 -3.6361,-4.374001 -3.6361,-4.374001 l -6.15319,-0.08169 z"
       id="path1-0"
       inkscape:label="path1" /><path
       style="fill:none;stroke:#060000;stroke-width:1.09726;stroke-linecap:round;stroke-dasharray:none;stroke-opacity:1"
       d="m 128.99647,66.889073 c -5.17413,0 -4.49448,5.623796 -4.49448,5.623796 l 0.0555,6.444978 c 0,0 3.88629,0 6.11614,0 2.22987,0 3.49566,-4.549734 3.49566,-4.549734 l 0.0653,-7.699301 z"
       id="path1-9-9"
       inkscape:label="path1" /><path
       style="fill:none;stroke:#060000;stroke-width:1.09726;stroke-linecap:round;stroke-dasharray:none;stroke-opacity:1"
       d="m 124.55753,78.957847 -0.0701,17.230141 -27.873469,10e-7 -0.0435,3.405135 24.585589,0.133953 -24.593939,-0.09752 -0.0835,4.283193 4.882169,-0.1074 2.39573,27.25088 41.56083,0.0207 2.45034,-25.89557 0.1315,-1.39847 4.93865,-0.21059 0.0236,-7.384114 -28.37391,-10e-7"
       id="path2-3" /><path
       style="fill:none;stroke:#060000;stroke-width:1.09726;stroke-linecap:round;stroke-dasharray:none;stroke-opacity:1"
       d="m 102.34578,115.01064 16.43867,0.001"
       id="path3-60" /><path
       style="fill:none;stroke:#060000;stroke-width:1.09726;stroke-linecap:round;stroke-dasharray:none;stroke-opacity:1"
       d="m 103.12233,123.84369 8.4231,-0.0745"
       id="path4-6" /><path
       style="fill:none;stroke:#060000;stroke-width:1.09726;stroke-linecap:round;stroke-dasharray:none;stroke-opacity:1"
       d="m 101.36069,103.80529 46.53837,-0.0225"
       id="path5-2" /></g><g
     inkscape:groupmode="layer"
     id="layer4"
     inkscape:label="pot4"
     transform="translate(-2.2705509,96.542764)"><path
       style="fill:none;stroke:#060000;stroke-width:1.09726;stroke-linecap:round;stroke-dasharray:none;stroke-opacity:1"
       d="m 172.50049,25.572145 c 0,6.474217 4.49446,5.623793 4.49446,5.623793 l 5.15077,-0.06952 c 0,0 0,-4.862802 0,-7.65295 0,-2.790144 -3.6361,-4.374001 -3.6361,-4.374001 l -6.15319,-0.08169 z"
       id="path1-7"
       inkscape:label="path1" /><path
       style="fill:none;stroke:#060000;stroke-width:1.09726;stroke-linecap:round;stroke-dasharray:none;stroke-opacity:1"
       d="m 186.64019,24.567245 c -5.17412,0 -4.49447,5.623796 -4.49447,5.623796 l 0.0555,6.444979 c 0,0 3.8863,0 6.11615,0 2.22986,0 3.49566,-4.549735 3.49566,-4.549735 l 0.0653,-7.699301 z"
       id="path1-9-92"
       inkscape:label="path1" /><path
       style="fill:none;stroke:#060000;stroke-width:1.09726;stroke-linecap:round;stroke-dasharray:none;stroke-opacity:1"
       d="m 182.20126,36.63602 -0.0701,17.230141 -27.87346,1e-6 -0.0435,3.405134 24.58558,0.133953 -24.59394,-0.09752 -0.0835,4.283195 4.88218,-0.107459 2.39572,27.250875 41.56081,0.02063 2.45034,-25.895563 0.13151,-1.398476 4.93866,-0.210583 0.0236,-7.384122 -28.3739,-10e-7"
       id="path2-0" /><path
       style="fill:none;stroke:#060000;stroke-width:1.09726;stroke-linecap:round;stroke-dasharray:none;stroke-opacity:1"
       d="m 159.98952,72.68881 16.43865,0.0012"
       id="path3-2" /><path
       style="fill:none;stroke:#060000;stroke-width:1.09726;stroke-linecap:round;stroke-dasharray:none;stroke-opacity:1"
       d="m 160.76606,81.521848 8.42311,-0.07445"
       id="path4-3" /><path
       style="fill:none;stroke:#060000;stroke-width:1.09726;stroke-linecap:round;stroke-dasharray:none;stroke-opacity:1"
       d="m 159.00442,61.483462 46.53836,-0.02253"
       id="path5-7" /></g></svg>
